#N canvas 616 114 450 300 10;
#X obj 71 204 align;
#X msg -67 25 left;
#X msg -27 25 center;
#X msg 23 25 right;
#X msg 153 65 top;
#X msg 153 92 middle;
#X msg 153 119 bottom;
#X msg 63 25 xstep 10;
#X msg 153 146 ystep 10;
#X msg -85 113 grid 10;
#X text 115 240 Developed by Flavio Schiavoni;
#X text -117 -28 Align selected objects on the patch;
#X connect 1 0 0 0;
#X connect 2 0 0 0;
#X connect 3 0 0 0;
#X connect 4 0 0 0;
#X connect 5 0 0 0;
#X connect 6 0 0 0;
#X connect 7 0 0 0;
#X connect 8 0 0 0;
#X connect 9 0 0 0;
#X coords 400 0 1 1 0 0 0;
